<svg width="35" height="34" viewBox="0 0 35 34" fill="none" xmlns="http://www.w3.org/2000/svg">
<rect x="0.641724" width="34" height="34" rx="9" fill="#1A1F16"/>
<path d="M24.6259 13.9555C24.5215 13.8505 24.3974 13.7672 24.2606 13.7105C24.1239 13.6538 23.9773 13.6247 23.8292 13.625H21.5792V13.0625C21.5792 12.0182 21.1644 11.0167 20.426 10.2783C19.6875 9.53984 18.686 9.125 17.6417 9.125C16.5974 9.125 15.5959 9.53984 14.8575 10.2783C14.1191 11.0167 13.7042 12.0182 13.7042 13.0625V13.625H11.4542C11.1559 13.625 10.8697 13.7435 10.6587 13.9545C10.4478 14.1655 10.3292 14.4516 10.3292 14.75V22.3438C10.3292 23.7148 11.4894 24.875 12.8605 24.875H22.423C23.0862 24.8752 23.7232 24.6159 24.1977 24.1525C24.4365 23.9247 24.6266 23.6509 24.7566 23.3476C24.8867 23.0442 24.9539 22.7177 24.9542 22.3877V14.75C24.9547 14.6024 24.9259 14.4563 24.8695 14.3199C24.8132 14.1835 24.7304 14.0597 24.6259 13.9555ZM19.8917 19.8125H18.2042V21.5C18.2042 21.6492 18.145 21.7923 18.0395 21.8977C17.934 22.0032 17.7909 22.0625 17.6417 22.0625C17.4925 22.0625 17.3495 22.0032 17.244 21.8977C17.1385 21.7923 17.0792 21.6492 17.0792 21.5V19.8125H15.3917C15.2425 19.8125 15.0995 19.7532 14.994 19.6477C14.8885 19.5423 14.8292 19.3992 14.8292 19.25C14.8292 19.1008 14.8885 18.9577 14.994 18.8523C15.0995 18.7468 15.2425 18.6875 15.3917 18.6875H17.0792V17C17.0792 16.8508 17.1385 16.7077 17.244 16.6023C17.3495 16.4968 17.4925 16.4375 17.6417 16.4375C17.7909 16.4375 17.934 16.4968 18.0395 16.6023C18.145 16.7077 18.2042 16.8508 18.2042 17V18.6875H19.8917C20.0409 18.6875 20.184 18.7468 20.2895 18.8523C20.395 18.9577 20.4542 19.1008 20.4542 19.25C20.4542 19.3992 20.395 19.5423 20.2895 19.6477C20.184 19.7532 20.0409 19.8125 19.8917 19.8125ZM20.4542 13.625H14.8292V13.0625C14.8292 12.3166 15.1255 11.6012 15.653 11.0738C16.1804 10.5463 16.8958 10.25 17.6417 10.25C18.3876 10.25 19.103 10.5463 19.6305 11.0738C20.1579 11.6012 20.4542 12.3166 20.4542 13.0625V13.625Z" fill="white"/>
</svg>
