<svg width="70" height="70" viewBox="0 0 70 70" fill="none" xmlns="http://www.w3.org/2000/svg">
<g clip-path="url(#clip0_623_1019)">
<path fill-rule="evenodd" clip-rule="evenodd" d="M32.3979 26.5233C32.1517 26.3619 31.9052 26.2003 31.6601 26.0374C30.6263 26.7018 29.5952 27.3688 28.5644 28.0362C26.6253 29.2915 24.686 30.5468 22.7263 31.7816C22.0192 29.6389 20.4952 27.9184 18.3457 27.2486C16.8291 26.7762 14.9482 26.8378 13.0033 26.9016C11.8305 26.9401 10.6345 26.9792 9.48099 26.9026V41.332C10.6619 41.2773 11.8351 41.3105 12.9719 41.3428C14.1965 41.3778 15.3788 41.4113 16.483 41.332C19.8975 41.0865 21.9611 39.0082 22.8299 36.2454C24.2929 37.2026 25.7312 38.1846 27.1696 39.1669C28.68 40.1979 30.1904 41.2292 31.7291 42.2317C32.718 41.5989 33.7133 40.9505 34.7099 40.3014C36.6207 39.0569 38.5364 37.8093 40.4213 36.6604V41.332H50.1831V36.7297C49.6057 36.721 49.0148 36.7257 48.4241 36.7302C47.462 36.7378 46.5 36.7452 45.5953 36.6954V26.9026H40.4213V31.8164C39.7811 32.2259 39.1426 32.637 38.5041 33.048C36.7966 34.1476 35.0891 35.2469 33.3503 36.3147C33.214 36.2255 33.0721 36.1422 32.9301 36.0589C32.6803 35.9125 32.4306 35.7659 32.2123 35.588C33.1904 34.9537 34.1583 34.309 35.1263 33.6646C36.4459 32.7861 37.7653 31.9076 39.1108 31.0549C38.1473 30.326 37.1194 29.6616 36.0753 29.0133C33.9274 30.3923 31.7709 31.7627 29.6147 33.133C29.4343 33.2476 29.2537 33.3625 29.0733 33.4771C28.8971 33.342 28.7091 33.2191 28.521 33.0963C28.3333 32.9736 28.1452 32.8506 27.9695 32.7158C28.9328 32.1 29.8907 31.4785 30.8486 30.8568C32.1948 29.9834 33.5408 29.1099 34.9026 28.252C34.1022 27.6411 33.25 27.0822 32.3979 26.5233ZM14.4134 36.7299V31.5394C14.4104 31.4904 14.4078 31.4413 14.4477 31.4356C15.9415 31.3395 17.018 31.4943 17.6556 32.2314C18.611 33.3361 18.393 35.4093 17.3107 36.2454C16.6546 36.7526 15.8278 36.744 14.7677 36.7329C14.6524 36.7316 14.5343 36.7304 14.4134 36.7299Z" fill="#0083CA"/>
<path d="M56.7019 26.9026H51.5281C51.4879 26.9083 51.4907 26.9568 51.4931 27.0058L51.4934 41.3322H61.2551V36.7299H56.7019V26.9026Z" fill="#0083CA"/>
<path fill-rule="evenodd" clip-rule="evenodd" d="M35.9021 0.5H33.7636C23.4303 1.07071 15.9367 5.06161 10.4464 10.5698C4.98135 16.0524 0.894487 23.4529 0.37439 33.8928C0.380191 33.933 0.366954 33.9544 0.339886 33.962V36.0382C0.883035 46.5181 4.94774 53.8422 10.4463 59.3957C15.9449 64.9492 23.3629 68.9103 33.7636 69.4998H35.8676C46.4754 68.9763 53.503 64.8615 59.2194 59.4304C64.6616 53.7128 68.7979 46.6854 69.326 36.0382V33.962C68.7828 23.4822 64.7183 16.1578 59.2194 10.6044C53.7209 5.05102 46.3044 1.08846 35.9021 0.5ZM21.4497 7.52452C23.1156 6.69807 24.9535 5.99891 27.0031 5.44836C29.0679 4.8936 31.3309 4.59402 33.7296 4.47943C38.6091 4.24635 43.1649 5.33271 46.6646 6.7979C50.2716 8.30799 53.3323 10.3973 55.8742 12.8535C61.0115 17.8175 64.9041 24.327 65.3597 33.9273C65.6005 38.9951 64.4869 43.1787 63.0142 46.8C60.1021 53.959 54.8485 59.1473 48.1819 62.5101C44.7805 64.2257 40.6749 65.2942 35.9369 65.5207C30.9975 65.7565 26.611 64.7035 23.071 63.2023C15.9123 60.1663 10.7396 55.1712 7.34194 48.3917C5.62147 44.9582 4.53233 40.9303 4.30673 36.1419C3.94889 28.5465 6.41983 22.7544 9.27359 18.2517C12.1974 13.6388 16.379 10.04 21.4497 7.52452Z" fill="#0083CA"/>
</g>
<defs>
<clipPath id="clip0_623_1019">
<rect width="69" height="69" fill="white" transform="translate(0.333313 0.5)"/>
</clipPath>
</defs>
</svg>
