<svg width="70" height="74" viewBox="0 0 70 74" fill="none" xmlns="http://www.w3.org/2000/svg">
<path d="M65.6281 37.719C65.6281 35.057 65.4196 33.1145 64.9683 31.1001H35.628V43.1147H52.8502C52.5031 46.1006 50.6279 50.597 46.4612 53.6186L46.4028 54.0209L55.6797 61.4663L56.3224 61.5326C62.2252 55.885 65.6281 47.5753 65.6281 37.719Z" fill="#4285F4"/>
<path d="M35.626 69.375C44.0635 69.375 51.1468 66.4971 56.3205 61.5331L46.4594 53.6188C43.8204 55.5254 40.2789 56.8565 35.626 56.8565C27.3623 56.8565 20.3485 51.2089 17.8483 43.4029L17.4818 43.435L7.83566 51.1692L7.7095 51.5325C12.8483 62.1084 23.4038 69.375 35.626 69.375Z" fill="#34A853"/>
<path d="M17.8501 43.4029C17.1904 41.3884 16.8086 39.2299 16.8086 36.9998C16.8086 34.7694 17.1904 32.6111 17.8154 30.5967L17.7979 30.1677L8.03087 22.3095L7.71132 22.467C5.59334 26.8555 4.37805 31.7839 4.37805 36.9998C4.37805 42.2158 5.59334 47.1438 7.71132 51.5324L17.8501 43.4029Z" fill="#FBBC05"/>
<path d="M35.6263 17.1433C41.4942 17.1433 45.4525 19.7692 47.7096 21.9637L56.5289 13.0425C51.1125 7.82654 44.0637 4.625 35.6263 4.625C23.4041 4.625 12.8484 11.8913 7.7095 22.4671L17.8137 30.5969C20.3486 22.791 27.3626 17.1433 35.6263 17.1433Z" fill="#EB4335"/>
</svg>
