<svg width="130" height="36" viewBox="0 0 130 36" fill="none" xmlns="http://www.w3.org/2000/svg">
<path d="M0.227031 27V1.08H4.13303L13.097 19.44L22.061 1.08H25.967V27H21.917V10.386L13.961 27H12.233L4.29503 10.386V27H0.227031ZM37.0299 27.54C34.6299 27.54 32.6799 27 31.1799 25.92C29.6799 24.84 28.7679 23.322 28.4439 21.366L32.8719 20.682C33.0999 21.642 33.6039 22.398 34.3839 22.95C35.1639 23.502 36.1479 23.778 37.3359 23.778C38.3799 23.778 39.1839 23.574 39.7479 23.166C40.3239 22.746 40.6119 22.176 40.6119 21.456C40.6119 21.012 40.5039 20.658 40.2879 20.394C40.0839 20.118 39.6279 19.854 38.9199 19.602C38.2119 19.35 37.1259 19.032 35.6619 18.648C34.0299 18.216 32.7339 17.754 31.7739 17.262C30.8139 16.758 30.1239 16.164 29.7039 15.48C29.2839 14.796 29.0739 13.968 29.0739 12.996C29.0739 11.784 29.3919 10.728 30.0279 9.828C30.6639 8.928 31.5519 8.238 32.6919 7.758C33.8319 7.266 35.1759 7.02 36.7239 7.02C38.2359 7.02 39.5739 7.254 40.7379 7.722C41.9139 8.19 42.8619 8.856 43.5819 9.72C44.3019 10.584 44.7459 11.598 44.9139 12.762L40.4859 13.554C40.3779 12.726 39.9999 12.072 39.3519 11.592C38.7159 11.112 37.8639 10.842 36.7959 10.782C35.7759 10.722 34.9539 10.878 34.3299 11.25C33.7059 11.61 33.3939 12.12 33.3939 12.78C33.3939 13.152 33.5199 13.47 33.7719 13.734C34.0239 13.998 34.5279 14.262 35.2839 14.526C36.0519 14.79 37.1919 15.114 38.7039 15.498C40.2519 15.894 41.4879 16.35 42.4119 16.866C43.3479 17.37 44.0199 17.976 44.4279 18.684C44.8479 19.392 45.0579 20.25 45.0579 21.258C45.0579 23.214 44.3439 24.75 42.9159 25.866C41.4999 26.982 39.5379 27.54 37.0299 27.54Z" fill="#101913"/>
<path d="M57.0945 27.54C55.1985 27.54 53.4885 27.21 51.9645 26.55C50.4525 25.89 49.2045 24.948 48.2205 23.724C47.2485 22.488 46.6305 21.024 46.3665 19.332L50.8665 18.648C51.2505 20.184 52.0365 21.372 53.2245 22.212C54.4245 23.052 55.8045 23.472 57.3645 23.472C58.2885 23.472 59.1585 23.328 59.9745 23.04C60.7905 22.752 61.4505 22.332 61.9545 21.78C62.4705 21.228 62.7285 20.55 62.7285 19.746C62.7285 19.386 62.6685 19.056 62.5485 18.756C62.4285 18.444 62.2485 18.168 62.0085 17.928C61.7805 17.688 61.4805 17.472 61.1085 17.28C60.7485 17.076 60.3285 16.902 59.8485 16.758L53.1525 14.778C52.5765 14.61 51.9525 14.388 51.2805 14.112C50.6205 13.824 49.9905 13.434 49.3905 12.942C48.8025 12.438 48.3165 11.802 47.9325 11.034C47.5605 10.254 47.3745 9.294 47.3745 8.154C47.3745 6.486 47.7945 5.088 48.6345 3.96C49.4865 2.82 50.6265 1.968 52.0545 1.404C53.4945 0.839998 55.0905 0.563998 56.8425 0.575999C58.6185 0.587998 60.2025 0.893998 61.5945 1.494C62.9865 2.082 64.1505 2.94 65.0865 4.068C66.0225 5.196 66.6825 6.558 67.0665 8.154L62.4045 8.964C62.2125 8.052 61.8405 7.278 61.2885 6.642C60.7485 5.994 60.0825 5.502 59.2905 5.166C58.5105 4.83 57.6765 4.65 56.7885 4.626C55.9245 4.614 55.1205 4.746 54.3765 5.022C53.6445 5.286 53.0505 5.67 52.5945 6.174C52.1505 6.678 51.9285 7.266 51.9285 7.938C51.9285 8.574 52.1205 9.096 52.5045 9.504C52.8885 9.9 53.3625 10.218 53.9265 10.458C54.5025 10.686 55.0845 10.878 55.6725 11.034L60.3165 12.33C60.9525 12.498 61.6665 12.726 62.4585 13.014C63.2505 13.302 64.0125 13.704 64.7445 14.22C65.4765 14.736 66.0765 15.414 66.5445 16.254C67.0245 17.094 67.2645 18.162 67.2645 19.458C67.2645 20.802 66.9825 21.984 66.4185 23.004C65.8665 24.012 65.1165 24.852 64.1685 25.524C63.2205 26.196 62.1345 26.7 60.9105 27.036C59.6985 27.372 58.4265 27.54 57.0945 27.54ZM83.1066 27V17.64C83.1066 17.028 83.0646 16.35 82.9806 15.606C82.8966 14.862 82.6986 14.148 82.3866 13.464C82.0866 12.768 81.6306 12.198 81.0186 11.754C80.4186 11.31 79.6026 11.088 78.5706 11.088C78.0186 11.088 77.4726 11.178 76.9326 11.358C76.3926 11.538 75.9006 11.85 75.4566 12.294C75.0246 12.726 74.6766 13.326 74.4126 14.094C74.1486 14.85 74.0166 15.822 74.0166 17.01L71.4426 15.912C71.4426 14.256 71.7606 12.756 72.3966 11.412C73.0446 10.068 73.9926 9 75.2406 8.208C76.4886 7.404 78.0246 7.002 79.8486 7.002C81.2886 7.002 82.4766 7.242 83.4126 7.722C84.3486 8.202 85.0926 8.814 85.6446 9.558C86.1966 10.302 86.6046 11.094 86.8686 11.934C87.1326 12.774 87.3006 13.572 87.3726 14.328C87.4566 15.072 87.4986 15.678 87.4986 16.146V27H83.1066ZM69.6246 27V1.08H73.4946V14.724H74.0166V27H69.6246ZM99.2818 27.54C97.3378 27.54 95.6398 27.102 94.1878 26.226C92.7358 25.35 91.6078 24.144 90.8038 22.608C90.0118 21.06 89.6158 19.284 89.6158 17.28C89.6158 15.24 90.0238 13.452 90.8398 11.916C91.6558 10.38 92.7898 9.18 94.2418 8.316C95.6938 7.452 97.3738 7.02 99.2818 7.02C101.238 7.02 102.942 7.458 104.394 8.334C105.846 9.21 106.974 10.422 107.778 11.97C108.582 13.506 108.984 15.276 108.984 17.28C108.984 19.296 108.576 21.078 107.76 22.626C106.956 24.162 105.828 25.368 104.376 26.244C102.924 27.108 101.226 27.54 99.2818 27.54ZM99.2818 23.472C101.01 23.472 102.294 22.896 103.134 21.744C103.974 20.592 104.394 19.104 104.394 17.28C104.394 15.396 103.968 13.896 103.116 12.78C102.264 11.652 100.986 11.088 99.2818 11.088C98.1178 11.088 97.1578 11.352 96.4018 11.88C95.6578 12.396 95.1058 13.122 94.7458 14.058C94.3858 14.982 94.2058 16.056 94.2058 17.28C94.2058 19.164 94.6318 20.67 95.4838 21.798C96.3478 22.914 97.6138 23.472 99.2818 23.472ZM120.792 27.54C118.896 27.54 117.306 27.09 116.022 26.19C114.738 25.29 113.772 24.066 113.124 22.518C112.476 20.958 112.152 19.212 112.152 17.28C112.152 15.324 112.476 13.572 113.124 12.024C113.772 10.476 114.72 9.258 115.968 8.37C117.228 7.47 118.782 7.02 120.63 7.02C122.466 7.02 124.056 7.47 125.4 8.37C126.756 9.258 127.806 10.476 128.55 12.024C129.294 13.56 129.666 15.312 129.666 17.28C129.666 19.224 129.3 20.97 128.568 22.518C127.836 24.066 126.804 25.29 125.472 26.19C124.14 27.09 122.58 27.54 120.792 27.54ZM111.414 35.64V7.56H115.248V21.204H115.788V35.64H111.414ZM120.126 23.652C121.254 23.652 122.184 23.37 122.916 22.806C123.648 22.242 124.188 21.48 124.536 20.52C124.896 19.548 125.076 18.468 125.076 17.28C125.076 16.104 124.896 15.036 124.536 14.076C124.176 13.104 123.618 12.336 122.862 11.772C122.106 11.196 121.146 10.908 119.982 10.908C118.878 10.908 117.978 11.178 117.282 11.718C116.586 12.246 116.07 12.99 115.734 13.95C115.41 14.898 115.248 16.008 115.248 17.28C115.248 18.54 115.41 19.65 115.734 20.61C116.07 21.57 116.592 22.32 117.3 22.86C118.02 23.388 118.962 23.652 120.126 23.652Z" fill="#1677FF"/>
</svg>
