<svg width="64" height="62" viewBox="0 0 64 62" fill="none" xmlns="http://www.w3.org/2000/svg">
<g clip-path="url(#clip0_622_1017)">
<path d="M2.02737 44.9709C-0.33047 46.9386 0.106104 50.3286 5.48554 52.4483C10.865 54.5683 17.1176 55.0066 22.6192 53.8257C22.9336 53.8257 22.4621 53.8257 22.6192 53.8257V47.1354L17.2748 49.3C15.2313 50.0871 13.1878 50.284 11.1444 49.6935C9.57249 49.1032 9.88686 47.9226 11.7731 46.9386L22.6192 42.216V34.9354L7.52902 41.4291C5.64275 42.216 3.75647 43.3968 2.02737 44.9709ZM38.4954 15.4548V34.542C44.9401 38.4774 49.9702 34.542 49.9702 24.3097C49.9702 13.8807 46.9836 9.15806 38.3383 5.41935C33.7796 3.4516 29.0641 1.68065 24.3483 0.5V57.3677L35.3517 61.5V13.6839C35.3517 11.5193 35.3517 9.94517 36.6091 10.5355C38.3383 11.1258 38.4954 13.2903 38.4954 15.4548ZM58.93 40.4451C54.3716 38.4774 49.4987 37.6903 44.783 38.2806C42.1637 38.4856 39.7058 39.4154 37.2379 40.4451V48.1194L47.4551 43.3968C49.4987 42.6097 51.5421 42.4129 53.5856 43.0032C55.1575 43.5935 54.8431 44.7743 52.9568 45.758L37.2379 53.0386V60.516L58.93 50.4806C60.5018 49.6935 61.9166 48.7097 63.1742 47.1354C64.2746 45.1677 63.8028 42.4129 58.93 40.4451Z" fill="#0070D1"/>
</g>
<defs>
<clipPath id="clip0_622_1017">
<rect width="63" height="61" fill="white" transform="translate(0.666656 0.5)"/>
</clipPath>
</defs>
</svg>
