<svg width="25" height="28" viewBox="0 0 25 28" fill="none" xmlns="http://www.w3.org/2000/svg">
<path fill-rule="evenodd" clip-rule="evenodd" d="M14.6321 8.77059C14.6321 11.943 12.0429 14.5412 8.81607 14.5412C5.5893 14.5412 3 11.943 3 8.77059C3 5.59819 5.5893 3 8.81607 3C12.0429 3 14.6321 5.59819 14.6321 8.77059ZM13.1737 16.3966C11.8884 17.1251 10.4011 17.5412 8.81607 17.5412C3.94709 17.5412 0 13.6145 0 8.77059C0 3.92673 3.94709 0 8.81607 0C13.6851 0 17.6321 3.92673 17.6321 8.77059C17.6321 10.9586 16.8268 12.9596 15.4948 14.4959L24.3074 25.3672L21.977 27.2564L13.1737 16.3966Z" fill="black"/>
</svg>
